#!OML:ASF F:\VICON\USERDATA\INSTALL\rory3\rory3.ASF
:FULLY-SPECIFIED
:DEGREES
45
root 0.7548984454834387 17.94444337659234 23.71091459332885 -3.10474807924094 1.4121314525307815 2.013788443699219
lfemur 8.377007749929225 -4.080439887081255 -25.152079623916386
ltibia 28.70138171828606
lfoot -3.164609907019449 -5.651056251773651
ltoes -12.6958733943898
rfemur -23.09385299296042 -1.5015004506566836 18.343552555657592
rtibia 36.16655670722442
rfoot -9.644623924623865 -6.7590174809232595
rtoes 5.787543229333911
lowerback nan -1.2091979978465177 -3.1511874325286273
upperback 0.0764342196465038 -2.045389630929876 1.6545128585028668
thorax -5.893699565045859 -0.9622123517149249 3.9044489755276857
lowerneck -16.55985145870102 -2.9470515543184206 -2.242888891600013
upperneck 22.577284113607483 -3.7150178046864033 0.8904560177373162
head 10.084134602728001 -1.8260839057530047 0.20466049579692877
lclavicle -2.573635630743267e-15 -2.7686399464170785e-15
lhumerus -24.950663608074464 -1.9383607990699763 81.01556310950639
lradius 28.36329804295454
lwrist 7.9191934564877045
lhand -29.58950690145314 18.578618730576732
lfingers nan
lthumb -2.6437597330214766 49.08520931676286
rclavicle -2.5383645606247988e-15 -2.749911410723304e-15
rhumerus -37.174812802641384 -22.829728592692234 -77.88549107276471
rradius 29.078690366771443
rwrist 1.0305878336930427
rhand -17.832267171825332 nan
rfingers nan
rthumb 9.077456601940977 -6.853075177519665
46
root 0.7783562313144033 17.931281369497174 24.97323572618073 -3.3349294810585173 1.2208043119035727 2.387367582363837
lfemur 7.810584977459573 -3.984575281008515 -25.164254658477283
ltibia 31.894122208522546
lfoot -2.868514154828195 -4.5353236614644725
ltoes -11.88609142581749
rfemur -22.37635752847964 -1.5586008320948177 18.26115085764657
rtibia 34.85219647973336
rfoot -10.3880021344657 -8.1343274485721
rtoes 6.280222556386433
lowerback nan -1.2450214365415146 -3.4664027749625363
upperback 0.12715773055128748 -2.1347456888127745 1.6725493568518899
thorax -5.816754190658096 -0.976170593543421 3.991289481708775
lowerneck -16.592889485549815 -2.963645005937785 -2.2536095059518226
upperneck 22.514770826831786 -3.7478801058165496 0.8349767661314367
head 10.05714855726537 -1.8424178589118432 0.1817936873172733
lclavicle -2.5716029616377893e-15 -2.767225816500376e-15
lhumerus -25.356979534343544 -1.9250376423975983 81.3371048238941
lradius 26.51534669563513
lwrist 8.351937270590962
lhand -29.56015064954499 18.7545719538506
lfingers nan
lthumb -2.6325077457726644 49.13971922218665
rclavicle -2.5423342813527987e-15 -2.7521228199342703e-15
rhumerus -37.742474961781966 -23.68350604849947 -76.67434291698994
rradius 29.49588213702616
rwrist 1.9739116769334855
rhand -17.798425740011027 nan
rfingers nan
rthumb 9.12093598777164 -6.5851151329539555
47
root 0.8081985859770449 17.924269218569528 26.315371999085134 -3.199862152128354 1.288561525018435 1.7382219939491912
lfemur 6.718555987525827 -3.8435077258059436 -24.287344575773464
ltibia 35.79874170033531
lfoot -4.409700384454284 -4.035714856189382
ltoes -9.86125680212546
rfemur -21.69834189983591 -1.3985690423804278 19.33508507557665
rtibia 34.42813597757824
rfoot -11.31144532070238 -9.338863550269702
rtoes 6.122421624390092
lowerback nan -1.3259153832444943 -2.8737597516183806
upperback 0.09554924383433704 -2.1198103077963175 1.8250909824786965
thorax -5.849941889744236 -0.9799259824057515 3.862958778710654
lowerneck -16.609733012826872 -2.975717584287595 -2.234572640395195
upperneck 22.40439758592364 -3.763555695097869 0.8077072840308008
head 9.990435148886057 -1.8521469904337033 0.17971055546404283
lclavicle -2.5709187224081677e-15 -2.766641642021178e-15
lhumerus -25.81495926712446 -1.7076824864719344 81.6485172802857
lradius 24.574654776366142
lwrist 8.944967112787056
lhand -29.550040492143918 18.796077914983123
lfingers nan
lthumb -2.663910817600855 49.01818188092694
rclavicle -2.544363770138523e-15 -2.753221416281437e-15
rhumerus -37.93360296071433 -24.588072151836148 -75.44793654271496
rradius 29.722612621035427
rwrist 3.3372437776639137
rhand -17.934090369175433 nan
rfingers nan
rthumb 8.9794748844267 -6.830377792523765
48
root 0.8295955816405746 17.909953436963438 27.169172459676133 -3.284237258734433 0.9351781847691094 1.0348373508234339
lfemur 5.59589439083112 -3.5080310651151114 -23.207884454115256
ltibia 39.74690229076383
lfoot -4.380204485104613 -2.4878252552337057
ltoes -10.245825138633455
rfemur -20.985937592837026 -0.9221818165054998 20.449862559758323
rtibia 34.57118400967742
rfoot -12.236498410013086 -10.288072077843951
rtoes 5.379793001337243
lowerback nan -1.3223865477466388 -2.3509868419625874
upperback 0.059648325562753554 -2.039571456880889 1.975526941683738
thorax -5.91761441381262 -0.9564868179681282 3.7253493354718072
lowerneck -16.63575653971106 -2.982515726097865 -2.1712131823261687
upperneck 22.304107713146678 -3.78028485775489 0.7630987637953823
head 9.921893001884007 -1.8646215654852971 0.16386117427586533
lclavicle -2.569827581802958e-15 -2.766494309796236e-15
lhumerus -26.385886283745332 -1.2399052273372724 81.93462361799489
lradius 22.782675627270024
lwrist 9.532521004705417
lhand -29.588526827222793 18.714485313371704
lfingers nan
lthumb -2.6984437134189507 48.935130414988514
rclavicle -2.5469175482547474e-15 -2.7551182348243116e-15
rhumerus -37.67960891741923 -25.360035520468085 -74.36636744821791
rradius 29.77248702647405
rwrist 4.492731393635938
rhand -17.904158764818323 nan
rfingers nan
rthumb 8.928773204470186 -7.041550808220522
